<?xml version="1.0" encoding="UTF-8" standalone="no"?>
<!-- Created with Inkscape (http://www.inkscape.org/) -->

<svg
   width="210mm"
   height="297mm"
   viewBox="0 0 210 297"
   version="1.1"
   id="svg1"
   inkscape:version="1.4 (86a8ad7, 2024-10-11)"
   sodipodi:docname="logo.svg"
   xmlns:inkscape="http://www.inkscape.org/namespaces/inkscape"
   xmlns:sodipodi="http://sodipodi.sourceforge.net/DTD/sodipodi-0.dtd"
   xmlns="http://www.w3.org/2000/svg"
   xmlns:svg="http://www.w3.org/2000/svg">
  <sodipodi:namedview
     id="namedview1"
     pagecolor="#ffffff"
     bordercolor="#000000"
     borderopacity="0.25"
     inkscape:showpageshadow="2"
     inkscape:pageopacity="0.0"
     inkscape:pagecheckerboard="0"
     inkscape:deskcolor="#d1d1d1"
     inkscape:document-units="mm"
     showguides="true"
     inkscape:zoom="0.71891835"
     inkscape:cx="392.95144"
     inkscape:cy="472.23722"
     inkscape:window-width="1920"
     inkscape:window-height="1009"
     inkscape:window-x="-8"
     inkscape:window-y="-8"
     inkscape:window-maximized="1"
     inkscape:current-layer="layer1">
    <sodipodi:guide
       position="-2.2081784,292.58365"
       orientation="0,-1"
       id="guide36"
       inkscape:locked="false" />
  </sodipodi:namedview>
  <defs
     id="defs1">
    <linearGradient
       id="swatch48"
       inkscape:swatch="solid">
      <stop
         style="stop-color:#008000;stop-opacity:1;"
         offset="0"
         id="stop48" />
    </linearGradient>
  </defs>
  <g
     inkscape:label="Layer 1"
     inkscape:groupmode="layer"
     id="layer1">
    <g
       id="g53"
       transform="translate(2.5762082,-8.464684)">
      <ellipse
         style="fill:#ffffff;fill-opacity:1;stroke:#008303;stroke-width:5;stroke-dasharray:none;stroke-opacity:1"
         id="path45"
         cx="101.93025"
         cy="152.54832"
         rx="90.889359"
         ry="92.559486" />
      <path
         style="fill:#ffcc00;stroke-width:0.264583"
         d="m 119.24163,215.66543 -6.2565,6.2565 c 0,0 -18.769519,-62.93308 -67.717469,-101.94423 -48.9479596,-39.01116 53.36431,28.33829 73.973969,95.68773 z"
         id="path24" />
      <path
         style="fill:#ffcc00;stroke-width:0.264583"
         d="m 95.687731,182.17472 -34.5948,-16.19331 c 0,0 32.01859,21.34573 34.5948,16.19331 z"
         id="path28" />
      <path
         style="fill:#ffcc00;stroke-width:0.264583"
         d="m 92.705671,176.94505 -36.06533,-21.18279 c 0,0 32.62299,24.74173 36.06533,21.18279 z"
         id="path29" />
      <path
         style="fill:#ffcc00;stroke-width:0.264583"
         d="m 90.736881,170.24547 c 0,0 -7.65754,-2.11658 -25.12411,-18.21164 -17.46658,-16.09506 14.60118,24.09395 25.12411,18.21164 z"
         id="path30" />
      <path
         style="fill:#ffcc00;stroke-width:0.264583"
         d="m 82.044441,155.93886 -28.06645,-18.3174 c 0,0 9.13955,12.11308 28.06645,18.3174 z"
         id="path31" />
      <path
         style="fill:#ffcc00;stroke-width:0.264583"
         d="m 66.245351,138.37918 -24.65799,-10.30483 c 0,0 4.04833,6.62454 24.65799,10.30483 z"
         id="path32" />
      <path
         style="fill:#ffcc00;stroke-width:0.264583"
         d="m 51.156131,124.02602 -27.2342,-12.14498 c 0,0 10.304832,6.62454 27.2342,12.14498 z"
         id="path33" />
      <path
         style="fill:#ffcc00;stroke-width:0.264583"
         d="M 56.676581,128.44238 30.914498,119.9777 c 0,0 20.977693,10.67286 25.762083,8.46468 z"
         id="path34" />
      <path
         style="fill:#ffcc00;stroke-width:0.264583"
         d="m 70.661711,142.79554 -25.02602,-7.72862 c 0,0 23.18587,9.9368 25.02602,7.72862 z"
         id="path35" />
      <path
         style="fill:#ffcc00;stroke-width:0.264583"
         d="m 82.949511,161.49541 -28.04,-19.05299 c 0,0 24.36208,18.92079 28.04,19.05299 z"
         id="path36" />
      <path
         style="fill:#ffcc00;stroke-width:0.249263"
         d="m 100.46867,180.43977 -9.721969,-47.0455 c 0,0 13.200809,43.79871 9.721969,47.0455 z"
         id="path28-8"
         sodipodi:nodetypes="ccc" />
      <path
         style="fill:#ffcc00;stroke-width:0.293455"
         d="M 78.619501,151.32557 62.243031,99.996566 c -0.59608,-0.33691 17.93985,45.884744 16.37647,51.329004 z"
         id="path29-8"
         sodipodi:nodetypes="ccc" />
      <path
         style="fill:#ffcc00;stroke-width:0.249263"
         d="m 92.788611,175.02919 c 0,0 -0.99701,-10.43845 -10.70243,-35.2453 -9.70541,-24.80688 15.13039,21.67889 10.70243,35.2453 z"
         id="path30-2"
         sodipodi:nodetypes="csc" />
      <path
         style="fill:#ffcc00;stroke-width:0.249263"
         d="m 84.541661,163.96664 -10.61886,-39.19356 c 0,0 7.51296,13.30712 10.61886,39.19356 z"
         id="path31-4"
         sodipodi:nodetypes="ccc" />
      <path
         style="fill:#ffcc00;stroke-width:0.249263"
         d="m 65.362981,139.18979 -6.11168,-33.4825 c 0,0 4.2639,5.69619 6.11168,33.4825 z"
         id="path32-5"
         sodipodi:nodetypes="ccc" />
      <path
         style="fill:#ffcc00;stroke-width:0.249263"
         d="m 52.623531,126.10434 -8.54087,-31.654124 c 0.27618,0.75795 7.30341,14.028374 8.54087,31.654124 z"
         id="path33-5"
         sodipodi:nodetypes="ccc" />
      <path
         style="fill:#ffcc00;stroke-width:0.249263"
         d="m 57.594241,129.26921 -4.86403,-34.888844 c 0,0 6.45939,28.562034 4.86403,34.888844 z"
         id="path34-1"
         sodipodi:nodetypes="ccc" />
      <path
         style="fill:#ffcc00;stroke-width:0.249263"
         d="m 61.532321,134.61756 -4.3984,-33.87209 c 0,0 5.91022,31.49352 4.3984,33.87209 z"
         id="path35-7"
         sodipodi:nodetypes="ccc" />
      <path
         style="fill:#ffcc00;stroke-width:0.249263"
         d="m 74.910251,150.58081 -11.10541,-39.22327 c 0,0 11.20985,34.28794 11.10541,39.22327 z"
         id="path36-1"
         sodipodi:nodetypes="ccc" />
      <path
         style="fill:#ffcc00;stroke-width:0.264583"
         d="m 119.8813,217.56102 -7.68635,4.38264 c 0,0 -1.48785,-65.65557 -38.399198,-116.20578 -36.911353,-50.550221 43.988868,41.42208 46.085548,111.82314 z"
         id="path24-7" />
      <path
         style="fill:#ffcc00;stroke-width:0.264583"
         d="m 106.00541,179.03993 -29.091881,-24.7525 c 0,0 25.246731,29.04192 29.091881,24.7525 z"
         id="path28-6" />
      <path
         style="fill:#ffcc00;stroke-width:0.264583"
         d="M 104.50992,173.2085 75.317004,143.25532 c 0,0 24.933086,32.47699 29.192916,29.95318 z"
         id="path29-1" />
      <path
         style="fill:#ffcc00;stroke-width:0.264583"
         d="m 104.37982,166.22684 c 0,0 -6.827006,-4.06322 -19.424375,-24.19873 -12.597366,-20.13551 7.721768,27.09403 19.424375,24.19873 z"
         id="path30-4" />
      <path
         style="fill:#ffcc00;stroke-width:0.264583"
         d="M 99.773066,150.13288 77.538683,125.0553 c 0,0 5.617121,14.09631 22.234383,25.07758 z"
         id="path31-2" />
      <path
         style="fill:#ffcc00;stroke-width:0.264583"
         d="M 89.170707,129.02498 68.108356,112.57556 c 0,0 2.155657,7.45831 21.062351,16.44942 z"
         id="path32-3" />
      <path
         style="fill:#ffcc00;stroke-width:0.264583"
         d="M 78.406436,111.19724 55.345126,92.292786 c 0,0 8.190168,9.110164 23.06131,18.904454 z"
         id="path33-2" />
      <path
         style="fill:#ffcc00;stroke-width:0.264583"
         d="M 82.564996,116.91441 59.951882,101.94834 c 0,0 17.415481,15.83271 22.613114,14.96607 z"
         id="path34-2" />
      <path
         style="fill:#ffcc00;stroke-width:0.264583"
         d="m 92.264352,134.45065 -22.097503,-14.0618 c 0,0 19.739632,15.70578 22.097503,14.0618 z"
         id="path35-1" />
      <path
         style="fill:#ffcc00;stroke-width:0.264583"
         d="M 99.178965,155.73122 77.164309,129.95113 c 0,0 18.502156,24.68153 22.014656,25.78009 z"
         id="path36-6" />
      <path
         style="fill:#ffcc00;stroke-width:0.249263"
         d="m 111.07478,178.62882 3.04402,-47.94298 c 0,0 1.16862,45.72988 -3.04402,47.94298 z"
         id="path28-8-8"
         sodipodi:nodetypes="ccc" />
      <path
         style="fill:#ffcc00;stroke-width:0.293455"
         d="M 97.687659,144.77903 95.444226,90.947605 c -0.485976,-0.48233 5.188744,48.993115 2.243433,53.831425 z"
         id="path29-8-5"
         sodipodi:nodetypes="ccc" />
      <path
         style="fill:#ffcc00;stroke-width:0.249263"
         d="m 105.09574,171.38252 c 0,0 1.79435,-10.33131 -1.01715,-36.82037 -2.8115,-26.48909 8.86981,24.9044 1.01715,36.82037 z"
         id="path30-2-7"
         sodipodi:nodetypes="csc" />
      <path
         style="fill:#ffcc00;stroke-width:0.249263"
         d="m 100.06216,158.53512 0.10588,-40.60645 c 0,0 3.733,14.81853 -0.10588,40.60645 z"
         id="path31-4-6"
         sodipodi:nodetypes="ccc" />
      <path
         style="fill:#ffcc00;stroke-width:0.249263"
         d="m 88.105622,129.57386 2.945286,-33.908048 c 0,0 2.608718,6.619818 -2.945286,33.908048 z"
         id="path32-5-1"
         sodipodi:nodetypes="ccc" />
      <path
         style="fill:#ffcc00;stroke-width:0.249263"
         d="m 79.273056,113.58924 0.119541,-32.785905 c 0.06626,0.803973 3.340479,15.458849 -0.119541,32.785905 z"
         id="path33-5-8"
         sodipodi:nodetypes="ccc" />
      <path
         style="fill:#ffcc00;stroke-width:0.249263"
         d="m 83.23179,117.95418 4.519967,-34.935081 c 0,0 -1.310807,29.253971 -4.519967,34.935081 z"
         id="path34-1-9"
         sodipodi:nodetypes="ccc" />
      <path
         style="fill:#ffcc00;stroke-width:0.249263"
         d="m 85.61805,124.15248 4.700625,-33.831461 c 0,0 -2.614453,31.936441 -4.700625,33.831461 z"
         id="path35-7-2"
         sodipodi:nodetypes="ccc" />
      <path
         style="fill:#ffcc00;stroke-width:0.249263"
         d="m 94.30666,143.08137 -0.355571,-40.76356 c 0,0 1.759332,36.03093 0.355571,40.76356 z"
         id="path36-1-7"
         sodipodi:nodetypes="ccc" />
      <path
         style="fill:#ffcc00;stroke-width:0.264583"
         d="m 121.38584,217.7499 -8.30256,3.05863 c 0,0 9.33213,-65.00599 -18.761431,-120.939203 C 66.228309,43.936106 130.89801,147.96291 121.38584,217.7499 Z"
         id="path24-7-3" />
      <path
         style="fill:#ffcc00;stroke-width:0.264583"
         d="M 114.03532,177.47108 89.411239,148.27042 c 0,0 20.125741,32.79917 24.624081,29.20066 z"
         id="path28-6-4" />
      <path
         style="fill:#ffcc00;stroke-width:0.264583"
         d="M 113.5194,171.47309 89.651139,137.12596 c 0,0 19.251311,36.13585 23.868261,34.34713 z"
         id="path29-1-1" />
      <path
         style="fill:#ffcc00;stroke-width:0.264583"
         d="m 114.53949,164.56513 c 0,0 -6.06566,-5.13086 -15.179331,-27.06424 -9.11369,-21.93338 3.159891,27.99514 15.179331,27.06424 z"
         id="path30-4-1" />
      <path
         style="fill:#ffcc00;stroke-width:0.264583"
         d="M 112.64278,147.93262 94.836279,119.53929 c 0,0 3.22192,14.82826 17.806501,28.39333 z"
         id="path31-2-3" />
      <path
         style="fill:#ffcc00;stroke-width:0.264583"
         d="M 105.65689,125.36825 87.587199,105.67834 c 0,0 0.89947,7.71132 18.069691,19.68991 z"
         id="path32-3-8" />
      <path
         style="fill:#ffcc00;stroke-width:0.264583"
         d="M 101.13322,112.33607 81.289909,93.854225 c 0,0 14.57393,18.481725 19.843311,18.481845 z"
         id="path34-2-4" />
      <path
         style="fill:#ffcc00;stroke-width:0.264583"
         d="M 107.81591,131.22889 88.332449,113.72382 c 0,0 16.887301,18.73882 19.483461,17.50507 z"
         id="path35-1-2" />
      <path
         style="fill:#ffcc00;stroke-width:0.264583"
         d="M 111.13591,153.35699 93.661689,124.30686 c 0,0 14.190251,27.38876 17.474221,29.05013 z"
         id="path36-6-7" />
      <path
         style="fill:#ffcc00;stroke-width:0.249263"
         d="m 119.10325,177.89942 10.8887,-46.78923 c 0,0 -6.36942,45.29921 -10.8887,46.78923 z"
         id="path28-8-8-7"
         sodipodi:nodetypes="ccc" />
      <path
         style="fill:#ffcc00;stroke-width:0.293455"
         d="m 111.46644,142.30867 6.64187,-53.467194 c -0.40002,-0.555702 -2.94083,49.179254 -6.64187,53.467194 z"
         id="path29-8-5-9"
         sodipodi:nodetypes="ccc" />
      <path
         style="fill:#ffcc00;stroke-width:0.249263"
         d="m 114.3976,169.76834 c 0,0 3.46929,-9.89542 5.05328,-36.48613 1.58401,-26.59073 4.65248,26.02417 -5.05328,36.48613 z"
         id="path30-2-7-3"
         sodipodi:nodetypes="csc" />
      <path
         style="fill:#ffcc00;stroke-width:0.249263"
         d="m 111.54587,156.26797 6.78378,-40.03592 c 0,0 1.24466,15.23072 -6.78378,40.03592 z"
         id="path31-4-6-1"
         sodipodi:nodetypes="ccc" />
      <path
         style="fill:#ffcc00;stroke-width:0.249263"
         d="m 104.51603,125.73446 8.48269,-32.961707 c 0,0 1.48426,6.958765 -8.48269,32.961707 z"
         id="path32-5-1-9"
         sodipodi:nodetypes="ccc" />
      <path
         style="fill:#ffcc00;stroke-width:0.249263"
         d="m 98.433079,108.5147 5.510881,-32.319655 c -0.0669,0.803923 0.75214,15.797761 -5.510881,32.319655 z"
         id="path33-5-8-8"
         sodipodi:nodetypes="ccc" />
      <path
         style="fill:#ffcc00;stroke-width:0.249263"
         d="m 101.61991,113.47136 10.20486,-33.715733 c 0,0 -6.10493,28.639883 -10.20486,33.715733 z"
         id="path34-1-9-6"
         sodipodi:nodetypes="ccc" />
      <path
         style="fill:#ffcc00;stroke-width:0.249263"
         d="m 102.9541,119.97776 10.20155,-32.59744 c 0,0 -7.83209,31.07139 -10.20155,32.59744 z"
         id="path35-7-2-5"
         sodipodi:nodetypes="ccc" />
      <path
         style="fill:#ffcc00;stroke-width:0.249263"
         d="m 108.41074,140.07799 6.35447,-40.266801 c 0,0 -4.19136,35.829541 -6.35447,40.266801 z"
         id="path36-1-7-0"
         sodipodi:nodetypes="ccc" />
      <path
         style="fill:#502d16;stroke-width:0.289965"
         d="m 122.49755,193.21561 c -3.36593,1.00088 -6.5927,3.28031 -8.89634,3.93136 -10.40237,2.93986 -10.55289,5.63742 -10.55289,5.63742 0,0 6.72084,7.50094 3.53623,8.83271 -3.52023,1.47212 10.75796,-14.35316 14.14489,-8.83271 3.24853,5.29489 1.76811,-9.56878 1.76811,-9.56878 z"
         id="path37"
         sodipodi:nodetypes="cscssc" />
      <path
         style="fill:#000080;stroke-width:0.217462"
         d="m 155.67996,148.31598 3.30889,3.59476 -31.76536,17.42075 -0.66178,-2.48868 z"
         id="path38" />
      <path
         style="fill:#0084ee;fill-opacity:1;stroke-width:0.217462"
         d="m 126.23082,165.46021 c 0,0 11.58113,24.05721 3.63978,42.30752 -7.94133,18.2503 -79.082496,-3.59475 -79.082496,-3.59475 41.915666,3.97495 88.015486,23.74841 75.442716,-38.71277 z"
         id="path39"
         sodipodi:nodetypes="cscc" />
    </g>
  </g>
</svg>
